<svg width="21" height="22" viewBox="0 0 21 22" fill="none" xmlns="http://www.w3.org/2000/svg">
<g filter="url(#filter0_d_2_1603)">
<path d="M14.1689 -0.000244141H6.83105C4.44287 -0.000244141 2.5 1.94263 2.5 4.33081V11.6688C2.5 14.0569 4.44287 15.9998 6.83105 15.9998H14.1691C16.5571 15.9998 18.5 14.0569 18.5 11.6688V4.33081C18.5 1.94263 16.5571 -0.000244141 14.1689 -0.000244141ZM10.5 12.3746C8.08765 12.3746 6.12512 10.4121 6.12512 7.99976C6.12512 5.5874 8.08765 3.62488 10.5 3.62488C12.9124 3.62488 14.8749 5.5874 14.8749 7.99976C14.8749 10.4121 12.9124 12.3746 10.5 12.3746ZM14.9795 4.65662C14.2666 4.65662 13.6868 4.07678 13.6868 3.36389C13.6868 2.651 14.2666 2.07104 14.9795 2.07104C15.6924 2.07104 16.2723 2.651 16.2723 3.36389C16.2723 4.07678 15.6924 4.65662 14.9795 4.65662Z" fill="white"/>
<path d="M10.5002 4.56287C8.6052 4.56287 7.06333 6.10461 7.06333 7.99975C7.06333 9.89477 8.6052 11.4366 10.5002 11.4366C12.3954 11.4366 13.9371 9.89477 13.9371 7.99975C13.9371 6.10461 12.3954 4.56287 10.5002 4.56287Z" fill="white"/>
<path d="M14.9794 3.00916C14.7838 3.00916 14.6247 3.16834 14.6247 3.36389C14.6247 3.55945 14.7838 3.71863 14.9794 3.71863C15.1751 3.71863 15.3342 3.55957 15.3342 3.36389C15.3342 3.16821 15.1751 3.00916 14.9794 3.00916Z" fill="white"/>
</g>
<defs>
<filter id="filter0_d_2_1603" x="0.5" y="-0.000244141" width="20" height="22" filterUnits="userSpaceOnUse" color-interpolation-filters="sRGB">
<feFlood flood-opacity="0" result="BackgroundImageFix"/>
<feColorMatrix in="SourceAlpha" type="matrix" values="0 0 0 0 0 0 0 0 0 0 0 0 0 0 0 0 0 0 127 0" result="hardAlpha"/>
<feOffset dy="4"/>
<feGaussianBlur stdDeviation="1"/>
<feColorMatrix type="matrix" values="0 0 0 0 0 0 0 0 0 0 0 0 0 0 0 0 0 0 0.1 0"/>
<feBlend mode="normal" in2="BackgroundImageFix" result="effect1_dropShadow_2_1603"/>
<feBlend mode="normal" in="SourceGraphic" in2="effect1_dropShadow_2_1603" result="shape"/>
</filter>
</defs>
</svg>
