<svg width="22" height="22" viewBox="0 0 22 22" fill="none" xmlns="http://www.w3.org/2000/svg">
<g filter="url(#filter0_d_237_61)">
<path d="M16.6605 17C16.9977 17 17.2898 16.8866 17.5382 16.6628L13.2885 12.3357C13.1866 12.41 13.0877 12.4823 12.9944 12.551C12.6764 12.7896 12.4182 12.9758 12.22 13.1092C12.0219 13.2429 11.7582 13.3792 11.4291 13.5183C11.0997 13.6576 10.7929 13.727 10.5082 13.727H10.4916C10.2069 13.727 9.90006 13.6576 9.57073 13.5183C9.24141 13.3792 8.97774 13.2429 8.77975 13.1092C8.58158 12.9758 8.3236 12.7896 8.00541 12.551C7.91674 12.4848 7.8184 12.4122 7.71208 12.3345L3.46159 16.6628C3.70993 16.8866 4.00227 17 4.33942 17H16.6605Z" fill="white"/>
<path d="M3.8455 9.61086C3.5275 9.39499 3.24551 9.14777 3 8.86929V15.4527L6.74565 11.6389C5.99631 11.1063 5.03082 10.431 3.8455 9.61086Z" fill="white"/>
<path d="M17.163 9.61086C16.0229 10.3966 15.0539 11.073 14.2559 11.6404L18 15.4529V8.86929C17.7599 9.14216 17.481 9.38923 17.163 9.61086Z" fill="white"/>
<path d="M16.6604 5H4.33929C3.90944 5 3.57897 5.14779 3.34746 5.44307C3.11577 5.73849 3.00011 6.10794 3.00011 6.55102C3.00011 6.90891 3.15359 7.29669 3.46043 7.71447C3.76726 8.13209 4.09376 8.46012 4.43975 8.69872C4.62943 8.83517 5.20143 9.24006 6.15576 9.91325C6.67092 10.2767 7.11893 10.5936 7.50392 10.867C7.83208 11.0998 8.11509 11.3014 8.34874 11.4687C8.37557 11.4879 8.41775 11.5186 8.47374 11.5594C8.53406 11.6035 8.6104 11.6595 8.70457 11.7287C8.88591 11.8622 9.03657 11.9702 9.15656 12.0526C9.27638 12.1351 9.42156 12.2273 9.59187 12.3296C9.76205 12.4318 9.92256 12.5086 10.0732 12.5597C10.2239 12.6108 10.3634 12.6364 10.4917 12.6364H10.5084C10.6367 12.6364 10.7762 12.6108 10.9269 12.5597C11.0775 12.5086 11.2379 12.4319 11.4082 12.3296C11.5784 12.2273 11.7233 12.1349 11.8436 12.0526C11.9635 11.9702 12.1142 11.8623 12.2956 11.7287C12.3895 11.6595 12.4659 11.6034 12.5262 11.5595C12.5822 11.5186 12.6244 11.488 12.6514 11.4687C12.8334 11.3397 13.117 11.139 13.4984 10.8693C14.1924 10.3784 15.2144 9.65582 16.5687 8.69872C16.976 8.40904 17.3163 8.05947 17.5898 7.6505C17.8629 7.24154 17.9997 6.81255 17.9997 6.36368C17.9997 5.98866 17.867 5.66776 17.6022 5.40048C17.337 5.13354 17.0231 5 16.6604 5Z" fill="white"/>
</g>
<defs>
<filter id="filter0_d_237_61" x="-1.07799" y="0" width="24.156" height="25.234" filterUnits="userSpaceOnUse" color-interpolation-filters="sRGB">
<feFlood flood-opacity="0" result="BackgroundImageFix"/>
<feColorMatrix in="SourceAlpha" type="matrix" values="0 0 0 0 0 0 0 0 0 0 0 0 0 0 0 0 0 0 127 0" result="hardAlpha"/>
<feOffset dy="2.15598"/>
<feGaussianBlur stdDeviation="0.538995"/>
<feColorMatrix type="matrix" values="0 0 0 0 0 0 0 0 0 0 0 0 0 0 0 0 0 0 0.1 0"/>
<feBlend mode="normal" in2="BackgroundImageFix" result="effect1_dropShadow_237_61"/>
<feBlend mode="normal" in="SourceGraphic" in2="effect1_dropShadow_237_61" result="shape"/>
</filter>
</defs>
</svg>
