<svg width="21" height="16" viewBox="0 0 21 16" fill="none" xmlns="http://www.w3.org/2000/svg">
<g filter="url(#filter0_d_2_1602)">
<path d="M18.3574 8.14244C18.3144 8.07044 18.0484 7.49239 16.7683 6.30431C15.4282 5.06021 15.6082 5.26223 17.2223 3.11107C18.2054 1.80097 18.5984 1.00091 18.4754 0.658889C18.3584 0.332865 17.6353 0.418872 17.6353 0.418872L15.2312 0.432873C15.2312 0.432873 15.0531 0.408871 14.9201 0.487877C14.7911 0.565883 14.7081 0.745896 14.7081 0.745896C14.7081 0.745896 14.3271 1.75997 13.8191 2.62203C12.748 4.44117 12.3189 4.53718 12.1439 4.42417C11.7369 4.16115 11.8389 3.36609 11.8389 2.80205C11.8389 1.03892 12.1059 0.303863 11.3179 0.113849C11.0559 0.0508443 10.8638 0.00884124 10.1948 0.00184073C9.33672 -0.00715994 8.60967 0.00484095 8.19864 0.205856C7.92462 0.339866 7.71361 0.638888 7.84262 0.655889C8.00163 0.676891 8.36165 0.752896 8.55267 1.01292C8.79969 1.34794 8.79068 2.102 8.79068 2.102C8.79068 2.102 8.9327 4.17715 8.45966 4.43517C8.13464 4.61218 7.6896 4.25116 6.73453 2.60003C6.2455 1.75497 5.87547 0.819902 5.87547 0.819902C5.87547 0.819902 5.80447 0.645888 5.67746 0.552882C5.52345 0.439873 5.30743 0.403871 5.30743 0.403871L3.02126 0.417872C3.02126 0.417872 2.67824 0.427873 2.55223 0.576884C2.44022 0.709893 2.54323 0.983913 2.54323 0.983913C2.54323 0.983913 4.33336 5.17122 6.35951 7.28238C8.21864 9.21752 10.3288 9.09051 10.3288 9.09051H11.2849C11.2849 9.09051 11.5739 9.05851 11.7209 8.8995C11.8569 8.75349 11.8519 8.47947 11.8519 8.47947C11.8519 8.47947 11.8329 7.19637 12.429 7.00736C13.016 6.82135 13.7701 8.24745 14.5691 8.79649C15.1732 9.21152 15.6322 9.12052 15.6322 9.12052L17.7693 9.09051C17.7693 9.09051 18.8874 9.02151 18.3574 8.14244Z" fill="white"/>
</g>
<defs>
<filter id="filter0_d_2_1602" x="0.5" y="-0.000244141" width="20" height="15.1292" filterUnits="userSpaceOnUse" color-interpolation-filters="sRGB">
<feFlood flood-opacity="0" result="BackgroundImageFix"/>
<feColorMatrix in="SourceAlpha" type="matrix" values="0 0 0 0 0 0 0 0 0 0 0 0 0 0 0 0 0 0 127 0" result="hardAlpha"/>
<feOffset dy="4"/>
<feGaussianBlur stdDeviation="1"/>
<feColorMatrix type="matrix" values="0 0 0 0 0 0 0 0 0 0 0 0 0 0 0 0 0 0 0.1 0"/>
<feBlend mode="normal" in2="BackgroundImageFix" result="effect1_dropShadow_2_1602"/>
<feBlend mode="normal" in="SourceGraphic" in2="effect1_dropShadow_2_1602" result="shape"/>
</filter>
</defs>
</svg>
